<?xml version="1.0" standalone="no"?>
<!DOCTYPE svg PUBLIC "-//W3C//DTD SVG 20010904//EN"
 "http://www.w3.org/TR/2001/REC-SVG-20010904/DTD/svg10.dtd">
<svg version="1.0" xmlns="http://www.w3.org/2000/svg"
 width="688.000000pt" height="688.000000pt" viewBox="0 0 688.000000 688.000000"
 preserveAspectRatio="xMidYMid meet">
<metadata>
Created by potrace 1.14, written by Peter Selinger 2001-2017
</metadata>
<g transform="translate(0.000000,688.000000) scale(0.100000,-0.100000)"
fill="#000000" stroke="none">
<path d="M10 6507 c0 -16 259 -3023 286 -3312 10 -119 13 -125 48 -140 18 -8
333 -100 700 -205 l668 -191 76 22 c42 12 82 23 88 26 16 6 19 -12 39 -262 9
-110 20 -240 25 -290 5 -49 16 -173 25 -275 8 -102 20 -232 25 -290 5 -58 14
-157 20 -220 29 -333 40 -452 46 -521 3 -42 10 -82 14 -89 4 -7 30 -18 56 -25
27 -8 130 -37 229 -65 99 -29 194 -55 210 -60 40 -10 487 -137 550 -155 28 -8
112 -33 189 -55 l138 -40 72 20 c39 10 193 53 341 95 149 42 302 85 340 96 39
11 93 26 120 33 28 8 153 44 278 79 126 35 233 69 238 74 5 5 13 63 19 128 5
66 17 194 25 285 8 91 19 217 25 280 5 63 17 192 25 285 8 94 20 220 25 280 5
61 17 189 25 285 9 96 20 219 24 273 4 54 12 102 17 106 5 5 44 0 87 -10 82
-20 101 -18 277 32 19 6 51 14 70 19 19 5 52 13 73 19 20 6 54 16 75 22 20 6
53 14 72 19 35 9 47 12 165 45 33 9 94 26 135 37 41 11 89 23 105 28 17 5 46
13 65 19 19 5 51 14 70 20 19 5 52 15 73 20 20 6 54 16 75 22 20 5 51 14 67
18 52 14 145 42 146 44 0 1 5 47 10 102 5 55 14 143 19 195 9 93 22 227 40
420 14 144 27 296 44 495 9 99 21 232 26 295 11 112 22 232 40 435 5 55 14
154 20 220 6 66 15 165 20 220 5 55 14 154 20 220 18 199 28 313 39 460 6 77
15 184 21 238 5 54 10 113 10 132 l0 35 -1700 0 -1700 0 0 -34 c0 -19 4 -78
10 -132 5 -55 15 -162 21 -239 11 -151 22 -270 39 -460 6 -66 15 -165 20 -220
5 -55 14 -154 20 -220 16 -172 27 -303 39 -435 5 -63 12 -135 15 -160 3 -25
10 -103 16 -175 6 -71 13 -147 16 -167 l4 -38 -235 0 -236 0 6 48 c3 26 48
535 100 1132 62 715 90 1088 84 1095 -10 10 -3389 21 -3389 12z m2765 -744
c-2 -16 -9 -89 -15 -163 -6 -74 -13 -152 -16 -172 l-6 -38 -824 0 -824 0 0
-27 c0 -16 9 -125 20 -243 11 -118 20 -218 20 -222 0 -5 356 -8 790 -8 625 0
790 -3 790 -12 1 -7 -12 -160 -27 -340 l-28 -328 -200 0 -201 0 13 123 c6 67
12 130 12 140 1 16 -42 17 -759 17 l-760 0 0 50 c0 27 -22 305 -50 617 -27
312 -50 583 -50 601 l0 32 1060 0 1060 0 -5 -27z m3457 22 c10 -4 12 -24 6
-93 -4 -48 -10 -136 -14 -197 -4 -60 -11 -115 -16 -122 -5 -7 -26 -17 -46 -24
-35 -11 -82 -31 -202 -86 -75 -34 -128 -58 -170 -76 -33 -14 -80 -35 -175 -77
-22 -10 -69 -30 -105 -45 -36 -15 -85 -36 -110 -47 -25 -11 -61 -27 -80 -35
-104 -45 -126 -43 373 -43 395 0 468 -2 473 -14 4 -12 -36 -512 -61 -756 -8
-74 -21 -226 -34 -390 -10 -118 -14 -137 -32 -152 -12 -10 -30 -18 -40 -18
-10 0 -28 -4 -41 -9 -27 -11 -140 -44 -218 -65 -51 -13 -204 -56 -275 -76 -28
-8 -52 -15 -137 -39 -117 -33 -144 -39 -153 -32 -5 4 -32 14 -58 21 l-49 13 7
106 c3 58 11 130 16 160 5 30 9 76 9 103 0 50 4 54 43 39 18 -7 73 5 233 51
115 33 222 63 238 67 37 8 44 29 56 186 5 66 14 176 19 244 6 68 8 128 5 132
-3 5 -331 9 -729 9 -407 0 -726 4 -729 9 -5 8 -19 136 -35 324 -3 43 -4 81 -1
85 5 7 38 23 83 41 12 5 38 16 57 24 19 8 98 41 175 72 77 31 156 64 175 72
19 8 44 19 55 23 11 4 37 15 57 24 21 9 56 23 78 31 22 8 57 22 78 31 42 18
78 33 107 44 64 25 115 51 115 60 0 7 -178 10 -509 10 -475 0 -509 1 -516 18
-7 17 -22 167 -32 314 l-5 78 533 3 c1368 6 1568 7 1581 2z m-5052 -1500 c0
-17 31 -339 33 -340 1 -1 114 -30 250 -64 223 -55 253 -60 289 -51 22 6 41 10
42 8 4 -6 25 -204 32 -300 l7 -97 -44 -11 c-24 -6 -50 -13 -58 -16 -24 -8
-880 209 -886 225 -3 8 -17 143 -30 300 -14 157 -27 301 -29 319 l-5 32 200 0
c109 0 199 -2 199 -5z m3488 -38 l3 -37 -208 2 -208 3 -3 23 c-8 53 -8 53 210
50 l203 -3 3 -38z m167 -337 c3 -5 1 -56 -4 -112 -5 -57 -15 -157 -20 -223 -6
-66 -18 -196 -26 -290 -22 -256 -34 -389 -45 -505 -6 -58 -15 -161 -20 -230
-15 -176 -27 -308 -45 -510 -9 -96 -20 -222 -25 -280 -5 -58 -16 -181 -24
-275 -9 -93 -20 -219 -25 -280 -24 -263 -23 -256 -45 -266 -12 -5 -145 -43
-296 -84 -151 -41 -297 -82 -325 -90 -27 -8 -76 -21 -107 -30 -32 -8 -82 -22
-110 -30 -172 -48 -235 -64 -250 -65 -17 0 -18 84 -18 1633 0 899 3 1637 7
1640 11 11 1371 8 1378 -3z m-1515 -1571 l0 -1142 -32 7 c-18 3 -58 13 -88 22
-60 17 -102 29 -152 43 -18 5 -59 16 -90 25 -32 9 -84 23 -115 32 -32 9 -71
20 -88 25 -70 19 -103 29 -155 44 -30 9 -71 20 -90 25 -72 17 -155 42 -172 51
-16 9 -18 29 -18 205 0 222 -3 216 82 190 29 -9 87 -25 128 -37 41 -11 89 -25
105 -29 17 -5 46 -13 65 -18 19 -6 61 -17 93 -26 140 -39 169 -46 178 -40 5 3
9 361 9 885 l0 879 170 0 170 0 0 -1141z"/>
</g>
</svg>
