<?xml version="1.0" standalone="no"?>
<!DOCTYPE svg PUBLIC "-//W3C//DTD SVG 20010904//EN"
 "http://www.w3.org/TR/2001/REC-SVG-20010904/DTD/svg10.dtd">
<svg version="1.0" xmlns="http://www.w3.org/2000/svg"
 width="512.000000pt" height="512.000000pt" viewBox="0 0 512.000000 512.000000"
 preserveAspectRatio="xMidYMid meet">
<metadata>
Created by potrace 1.14, written by Peter Selinger 2001-2017
</metadata>
<g transform="translate(0.000000,512.000000) scale(0.100000,-0.100000)"
fill="#000000" stroke="none">
<path d="M2319 5096 c-2 -3 -29 -7 -59 -10 -78 -8 -125 -15 -200 -31 -14 -3
-34 -7 -45 -9 -11 -2 -40 -9 -65 -16 -25 -7 -52 -14 -60 -16 -151 -34 -473
-169 -614 -257 -28 -18 -63 -39 -78 -46 -16 -8 -28 -18 -28 -23 0 -4 -5 -8
-11 -8 -10 0 -47 -26 -174 -122 -95 -72 -346 -324 -427 -428 -77 -100 -180
-257 -233 -355 -63 -116 -65 -120 -65 -127 0 -4 -15 -38 -33 -75 -18 -38 -33
-70 -33 -73 0 -6 -53 -157 -64 -185 -8 -18 -44 -159 -54 -211 -2 -11 -7 -30
-10 -44 -7 -31 -14 -71 -22 -130 -3 -25 -10 -67 -14 -95 -10 -56 -6 -566 4
-605 6 -23 10 -46 21 -129 2 -18 7 -41 10 -51 3 -10 7 -27 9 -37 20 -97 79
-299 105 -358 5 -11 15 -36 22 -55 19 -53 113 -247 155 -320 37 -65 161 -250
174 -260 3 -3 25 -30 47 -61 46 -62 239 -263 319 -331 92 -79 100 -85 165
-129 35 -24 66 -46 69 -49 9 -9 132 -87 170 -108 210 -116 462 -217 640 -257
151 -35 267 -55 335 -59 11 -1 25 -4 30 -7 13 -8 498 -3 545 5 19 3 51 8 70
10 19 3 37 5 40 7 3 1 8 1 12 0 4 0 46 8 92 19 46 11 99 22 117 25 18 3 36 8
41 11 4 3 16 7 25 9 67 15 143 40 189 60 30 13 54 22 54 20 0 -4 64 24 205 90
74 35 259 145 263 157 2 4 9 8 16 8 7 0 21 8 32 18 11 9 42 33 69 52 28 19 61
44 74 55 207 172 381 362 517 560 90 130 237 409 260 490 1 6 15 42 29 80 15
39 28 77 30 85 2 8 15 55 29 104 14 49 28 107 32 130 3 22 8 44 10 48 3 4 7
24 10 45 7 53 14 94 20 123 8 35 14 571 7 583 -3 5 -7 26 -9 46 -4 54 -12 110
-25 171 -5 30 -12 64 -14 75 -2 11 -13 56 -25 100 -11 44 -23 87 -25 95 -2 8
-19 58 -38 111 -122 337 -296 623 -542 889 -53 58 -187 183 -235 220 -24 19
-53 43 -65 54 -55 50 -304 204 -429 266 -174 85 -385 163 -534 195 -114 25
-154 33 -202 40 -19 3 -48 8 -65 11 -37 6 -561 15 -566 10z"/>
</g>
</svg>
